<?xml version="1.0" encoding="UTF-8" standalone="no"?>
<!-- Created with Inkscape (http://www.inkscape.org/) -->

<svg
   xmlns:dc="http://purl.org/dc/elements/1.1/"
   xmlns:cc="http://creativecommons.org/ns#"
   xmlns:rdf="http://www.w3.org/1999/02/22-rdf-syntax-ns#"
   xmlns:svg="http://www.w3.org/2000/svg"
   xmlns="http://www.w3.org/2000/svg"
   xmlns:xlink="http://www.w3.org/1999/xlink"
   xmlns:sodipodi="http://sodipodi.sourceforge.net/DTD/sodipodi-0.dtd"
   xmlns:inkscape="http://www.inkscape.org/namespaces/inkscape"
   width="1417.3228"
   height="1062.9921"
   id="svg2"
   version="1.1"
   inkscape:version="0.48.4 r9939"
   sodipodi:docname="Kachelhalter.svg">
  <defs
     id="defs4" />
  <sodipodi:namedview
     id="base"
     pagecolor="#ffffff"
     bordercolor="#666666"
     borderopacity="1.0"
     inkscape:pageopacity="0.0"
     inkscape:pageshadow="2"
     inkscape:zoom="0.83602261"
     inkscape:cx="350.98988"
     inkscape:cy="368.46134"
     inkscape:document-units="mm"
     inkscape:current-layer="layer4"
     showgrid="true"
     units="mm"
     inkscape:snap-bbox="true"
     inkscape:window-width="1024"
     inkscape:window-height="749"
     inkscape:window-x="0"
     inkscape:window-y="0"
     inkscape:window-maximized="1">
    <inkscape:grid
       type="xygrid"
       id="grid2987"
       units="mm"
       empspacing="5"
       visible="true"
       enabled="true"
       snapvisiblegridlinesonly="true"
       spacingx="1mm"
       spacingy="1mm"
       dotted="true" />
  </sodipodi:namedview>
  <metadata
     id="metadata7">
    <rdf:RDF>
      <cc:Work
         rdf:about="">
        <dc:format>image/svg+xml</dc:format>
        <dc:type
           rdf:resource="http://purl.org/dc/dcmitype/StillImage" />
        <dc:title></dc:title>
      </cc:Work>
    </rdf:RDF>
  </metadata>
  <g
     inkscape:groupmode="layer"
     id="layer4"
     inkscape:label="lehre"
     style="display:inline">
    <path
       style="fill:none;stroke:#000000;stroke-width:0.03543307;stroke-linecap:butt;stroke-linejoin:miter;stroke-miterlimit:4;stroke-opacity:1;stroke-dasharray:none;stroke-dashoffset:0"
       d="m 0.0748,779.59 -0.0123,159.45449 1066.5313,0 0.012,-159.45449 -35.3437,0 -0.012,60.17329 -88.59384,0 0.012,-60.17329 -818.5,0 -0.012,60.17329 -88.593753,0 0.0123,-60.17329 z"
       id="rect4572"
       inkscape:connector-curvature="0"
       sodipodi:nodetypes="ccccccccccccc" />
  </g>
  <g
     inkscape:label="Eckverbinder"
     inkscape:groupmode="layer"
     id="layer1"
     transform="translate(0,10.629915)"
     style="display:inline">
    <g
       id="g4566"
       transform="translate(389.97297,-3.4661641)">
      <path
         style="fill:none;stroke:#000000;stroke-width:0.03543307;stroke-linecap:butt;stroke-linejoin:miter;stroke-miterlimit:4;stroke-opacity:1;stroke-dashoffset:0"
         d="m 481.90355,21.245139 -3.5625,3.5625 0.003,251.567361 3.5625,3.5625 14.15625,0 49.59375,0 39,0 0,-102.75 -35.4375,0 0,-7.0625 35.4375,0 0,-39 L 574,120.5 l -28.34375,0 -0.003,-95.723611 -3.53125,-3.53125 z"
         transform="translate(0,-10.629915)"
         id="path4568"
         inkscape:connector-curvature="0"
         sodipodi:nodetypes="ccccccccccccccccc" />
      <path
         sodipodi:type="arc"
         style="fill:none;stroke:#000000;stroke-width:0.03543307;stroke-linecap:butt;stroke-linejoin:miter;stroke-miterlimit:4;stroke-opacity:1;stroke-dasharray:none;stroke-dashoffset:0"
         id="path4570"
         sodipodi:cx="510.23621"
         sodipodi:cy="102.75584"
         sodipodi:rx="14.173228"
         sodipodi:ry="14.173228"
         d="m 524.40943,102.75584 a 14.173228,14.173228 0 1 1 -28.34645,0 14.173228,14.173228 0 1 1 28.34645,0 z"
         transform="translate(3.5433214,-46.062977)" />
      <path
         transform="translate(3.5433214,116.92915)"
         d="m 524.40943,102.75584 a 14.173228,14.173228 0 1 1 -28.34645,0 14.173228,14.173228 0 1 1 28.34645,0 z"
         sodipodi:ry="14.173228"
         sodipodi:rx="14.173228"
         sodipodi:cy="102.75584"
         sodipodi:cx="510.23621"
         id="path4572"
         style="fill:none;stroke:#000000;stroke-width:0.03543307;stroke-linecap:butt;stroke-linejoin:miter;stroke-miterlimit:4;stroke-opacity:1;stroke-dasharray:none;stroke-dashoffset:0"
         sodipodi:type="arc" />
    </g>
    <g
       transform="translate(496.33199,-3.3388391)"
       id="g3073">
      <path
         inkscape:connector-curvature="0"
         id="path3075"
         transform="translate(0,-10.629915)"
         d="m 481.84375,21.180364 -3.5625,3.5625 0.0625,251.632136 3.5625,3.5625 240.80069,-0.22077 3.5433,-3.5433 0,-70.86614 -3.5433,-3.54331 -131.03987,0.14427 -7.08661,-7.08662 0.0758,-17.6341 -35.4375,0 0,-7.0625 35.4375,0 0.0121,-49.65519 7.01082,-7.16954 131.03986,-0.14427 3.53125,-3.51804 0,-67.322834 -3.53125,-3.53125 -177.17741,-0.01206 0,-14.173228 -3.54331,-3.543307 z"
         style="fill:none;stroke:#000000;stroke-width:0.03543307;stroke-linecap:butt;stroke-linejoin:miter;stroke-miterlimit:4;stroke-opacity:1;stroke-dashoffset:0"
         sodipodi:nodetypes="cccccccccccccccccccccccc" />
      <path
         transform="translate(3.5406118,-46.185702)"
         d="m 524.40943,102.75584 a 14.173228,14.173228 0 1 1 -28.34645,0 14.173228,14.173228 0 1 1 28.34645,0 z"
         sodipodi:ry="14.173228"
         sodipodi:rx="14.173228"
         sodipodi:cy="102.75584"
         sodipodi:cx="510.23621"
         id="path3077"
         style="fill:none;stroke:#000000;stroke-width:0.03543307;stroke-linecap:butt;stroke-linejoin:miter;stroke-miterlimit:4;stroke-opacity:1;stroke-dasharray:none;stroke-dashoffset:0"
         sodipodi:type="arc" />
      <path
         sodipodi:type="arc"
         style="fill:none;stroke:#000000;stroke-width:0.03543307;stroke-linecap:butt;stroke-linejoin:miter;stroke-miterlimit:4;stroke-opacity:1;stroke-dasharray:none;stroke-dashoffset:0"
         id="path3079"
         sodipodi:cx="510.23621"
         sodipodi:cy="102.75584"
         sodipodi:rx="14.173228"
         sodipodi:ry="14.173228"
         d="m 524.40943,102.75584 a 14.173228,14.173228 0 1 1 -28.34645,0 14.173228,14.173228 0 1 1 28.34645,0 z"
         transform="translate(3.5433214,116.92915)" />
      <path
         transform="translate(92.123289,116.93142)"
         d="m 524.40943,102.75584 a 14.173228,14.173228 0 1 1 -28.34645,0 14.173228,14.173228 0 1 1 28.34645,0 z"
         sodipodi:ry="14.173228"
         sodipodi:rx="14.173228"
         sodipodi:cy="102.75584"
         sodipodi:cx="510.23621"
         id="path3081"
         style="fill:none;stroke:#000000;stroke-width:0.03543307;stroke-linecap:butt;stroke-linejoin:miter;stroke-miterlimit:4;stroke-opacity:1;stroke-dasharray:none;stroke-dashoffset:0"
         sodipodi:type="arc" />
      <path
         sodipodi:type="arc"
         style="fill:none;stroke:#000000;stroke-width:0.03543307;stroke-linecap:butt;stroke-linejoin:miter;stroke-miterlimit:4;stroke-opacity:1;stroke-dasharray:none;stroke-dashoffset:0"
         id="path3083"
         sodipodi:cx="510.23621"
         sodipodi:cy="102.75584"
         sodipodi:rx="14.173228"
         sodipodi:ry="14.173228"
         d="m 524.40943,102.75584 a 14.173228,14.173228 0 1 1 -28.34645,0 14.173228,14.173228 0 1 1 28.34645,0 z"
         transform="translate(92.120579,-46.183427)" />
      <path
         sodipodi:type="arc"
         style="fill:none;stroke:#000000;stroke-width:0.03543307;stroke-linecap:butt;stroke-linejoin:miter;stroke-miterlimit:4;stroke-opacity:1;stroke-dasharray:none;stroke-dashoffset:0"
         id="path3085"
         sodipodi:cx="510.23621"
         sodipodi:cy="102.75584"
         sodipodi:rx="14.173228"
         sodipodi:ry="14.173228"
         d="m 524.40943,102.75584 a 14.173228,14.173228 0 1 1 -28.34645,0 14.173228,14.173228 0 1 1 28.34645,0 z"
         transform="translate(180.70597,116.93142)" />
      <path
         transform="translate(180.70326,-46.183427)"
         d="m 524.40943,102.75584 a 14.173228,14.173228 0 1 1 -28.34645,0 14.173228,14.173228 0 1 1 28.34645,0 z"
         sodipodi:ry="14.173228"
         sodipodi:rx="14.173228"
         sodipodi:cy="102.75584"
         sodipodi:cx="510.23621"
         id="path3087"
         style="fill:none;stroke:#000000;stroke-width:0.03543307;stroke-linecap:butt;stroke-linejoin:miter;stroke-miterlimit:4;stroke-opacity:1;stroke-dasharray:none;stroke-dashoffset:0"
         sodipodi:type="arc" />
    </g>
    <g
       transform="translate(283.67376,-3.4661641)"
       id="g3153">
      <path
         sodipodi:nodetypes="ccccccccccccccccc"
         inkscape:connector-curvature="0"
         id="path3155"
         transform="translate(0,-10.629915)"
         d="m 481.90355,21.245139 -3.5625,3.5625 0.003,251.567361 3.5625,3.5625 14.15625,0 49.59375,0 39,0 0,-102.75 -35.4375,0 0,-7.0625 35.4375,0 0,-39 L 574,120.5 l -28.34375,0 -0.003,-95.723611 -3.53125,-3.53125 z"
         style="fill:none;stroke:#000000;stroke-width:0.03543307;stroke-linecap:butt;stroke-linejoin:miter;stroke-miterlimit:4;stroke-opacity:1;stroke-dashoffset:0" />
      <path
         transform="translate(3.5433214,-46.062977)"
         d="m 524.40943,102.75584 a 14.173228,14.173228 0 1 1 -28.34645,0 14.173228,14.173228 0 1 1 28.34645,0 z"
         sodipodi:ry="14.173228"
         sodipodi:rx="14.173228"
         sodipodi:cy="102.75584"
         sodipodi:cx="510.23621"
         id="path3157"
         style="fill:none;stroke:#000000;stroke-width:0.03543307;stroke-linecap:butt;stroke-linejoin:miter;stroke-miterlimit:4;stroke-opacity:1;stroke-dasharray:none;stroke-dashoffset:0"
         sodipodi:type="arc" />
      <path
         sodipodi:type="arc"
         style="fill:none;stroke:#000000;stroke-width:0.03543307;stroke-linecap:butt;stroke-linejoin:miter;stroke-miterlimit:4;stroke-opacity:1;stroke-dasharray:none;stroke-dashoffset:0"
         id="path3159"
         sodipodi:cx="510.23621"
         sodipodi:cy="102.75584"
         sodipodi:rx="14.173228"
         sodipodi:ry="14.173228"
         d="m 524.40943,102.75584 a 14.173228,14.173228 0 1 1 -28.34645,0 14.173228,14.173228 0 1 1 28.34645,0 z"
         transform="translate(3.5433214,116.92915)" />
    </g>
    <g
       id="g3161"
       transform="translate(177.37455,-3.4661641)">
      <path
         style="fill:none;stroke:#000000;stroke-width:0.03543307;stroke-linecap:butt;stroke-linejoin:miter;stroke-miterlimit:4;stroke-opacity:1;stroke-dashoffset:0"
         d="m 481.90355,21.245139 -3.5625,3.5625 0.003,251.567361 3.5625,3.5625 14.15625,0 49.59375,0 39,0 0,-102.75 -35.4375,0 0,-7.0625 35.4375,0 0,-39 L 574,120.5 l -28.34375,0 -0.003,-95.723611 -3.53125,-3.53125 z"
         transform="translate(0,-10.629915)"
         id="path3163"
         inkscape:connector-curvature="0"
         sodipodi:nodetypes="ccccccccccccccccc" />
      <path
         sodipodi:type="arc"
         style="fill:none;stroke:#000000;stroke-width:0.03543307;stroke-linecap:butt;stroke-linejoin:miter;stroke-miterlimit:4;stroke-opacity:1;stroke-dasharray:none;stroke-dashoffset:0"
         id="path3165"
         sodipodi:cx="510.23621"
         sodipodi:cy="102.75584"
         sodipodi:rx="14.173228"
         sodipodi:ry="14.173228"
         d="m 524.40943,102.75584 a 14.173228,14.173228 0 1 1 -28.34645,0 14.173228,14.173228 0 1 1 28.34645,0 z"
         transform="translate(3.5433214,-46.062977)" />
      <path
         transform="translate(3.5433214,116.92915)"
         d="m 524.40943,102.75584 a 14.173228,14.173228 0 1 1 -28.34645,0 14.173228,14.173228 0 1 1 28.34645,0 z"
         sodipodi:ry="14.173228"
         sodipodi:rx="14.173228"
         sodipodi:cy="102.75584"
         sodipodi:cx="510.23621"
         id="path3167"
         style="fill:none;stroke:#000000;stroke-width:0.03543307;stroke-linecap:butt;stroke-linejoin:miter;stroke-miterlimit:4;stroke-opacity:1;stroke-dasharray:none;stroke-dashoffset:0"
         sodipodi:type="arc" />
    </g>
    <g
       transform="translate(70.934048,-3.4661641)"
       id="g3169">
      <path
         sodipodi:nodetypes="ccccccccccccccccc"
         inkscape:connector-curvature="0"
         id="path3171"
         transform="translate(0,-10.629915)"
         d="m 481.90355,21.245139 -3.5625,3.5625 0.003,251.567361 3.5625,3.5625 14.15625,0 49.59375,0 39,0 0,-102.75 -35.4375,0 0,-7.0625 35.4375,0 0,-39 L 574,120.5 l -28.34375,0 -0.003,-95.723611 -3.53125,-3.53125 z"
         style="fill:none;stroke:#000000;stroke-width:0.03543307;stroke-linecap:butt;stroke-linejoin:miter;stroke-miterlimit:4;stroke-opacity:1;stroke-dashoffset:0" />
      <path
         transform="translate(3.5433214,-46.062977)"
         d="m 524.40943,102.75584 a 14.173228,14.173228 0 1 1 -28.34645,0 14.173228,14.173228 0 1 1 28.34645,0 z"
         sodipodi:ry="14.173228"
         sodipodi:rx="14.173228"
         sodipodi:cy="102.75584"
         sodipodi:cx="510.23621"
         id="path3173"
         style="fill:none;stroke:#000000;stroke-width:0.03543307;stroke-linecap:butt;stroke-linejoin:miter;stroke-miterlimit:4;stroke-opacity:1;stroke-dasharray:none;stroke-dashoffset:0"
         sodipodi:type="arc" />
      <path
         sodipodi:type="arc"
         style="fill:none;stroke:#000000;stroke-width:0.03543307;stroke-linecap:butt;stroke-linejoin:miter;stroke-miterlimit:4;stroke-opacity:1;stroke-dasharray:none;stroke-dashoffset:0"
         id="path3175"
         sodipodi:cx="510.23621"
         sodipodi:cy="102.75584"
         sodipodi:rx="14.173228"
         sodipodi:ry="14.173228"
         d="m 524.40943,102.75584 a 14.173228,14.173228 0 1 1 -28.34645,0 14.173228,14.173228 0 1 1 28.34645,0 z"
         transform="translate(3.5433214,116.92915)" />
    </g>
  </g>
  <g
     inkscape:groupmode="layer"
     id="layer3"
     inkscape:label="Innenverbinder"
     style="display:inline">
    <g
       transform="translate(0.125,6.1068527e-6)"
       style="display:inline"
       id="g3461">
      <path
         id="path3274"
         d="m 180.89123,552.72779 -10.625,-10.59375 -0.31249,-14.18135 25.12007,-0.0231 0,-7.0625 -25.12007,-9.8e-4 -0.125,-99.15108 -3.5433,-3.5433 -38.66389,9.8e-4 -3.54331,-3.54331 1e-5,-60.23622 159.44881,0 0,60.23622 -3.5433,3.54331 -39.29998,-9.8e-4 -3.54331,3.5433 0.1361,99.15108 -24.48398,9.8e-4 0,7.0625 24.48398,0.0231 0,14.17323 -10.65625,10.625 z"
         style="fill:none;stroke:#000000;stroke-width:0.03543307;stroke-linecap:butt;stroke-linejoin:miter;stroke-miterlimit:4;stroke-opacity:1;stroke-dashoffset:0"
         inkscape:connector-curvature="0"
         sodipodi:nodetypes="ccccccccccccccccccccccc" />
      <path
         inkscape:connector-curvature="0"
         id="path3453"
         d="m 198.3627,389.70122 c 0,1.95692 -1.5864,3.54331 -3.54331,3.54331 -1.95691,0 -3.54331,-1.58639 -3.54331,-3.54331 0,-1.95691 1.5864,-3.5433 3.54331,-3.5433 1.95691,0 3.54331,1.58639 3.54331,3.5433 z"
         style="fill:none;stroke:#000000;stroke-width:0.03543307;stroke-linecap:butt;stroke-linejoin:miter;stroke-miterlimit:4;stroke-opacity:1;stroke-dashoffset:0" />
      <path
         inkscape:connector-curvature="0"
         id="path3455"
         d="m 159.38632,389.70123 c 0,1.95691 -1.58639,3.5433 -3.54331,3.5433 -1.95691,0 -3.54331,-1.58639 -3.54331,-3.5433 0,-1.95692 1.5864,-3.54331 3.54331,-3.54331 1.95692,0 3.54331,1.58639 3.54331,3.54331 z"
         style="fill:none;stroke:#000000;stroke-width:0.03543307;stroke-linecap:butt;stroke-linejoin:miter;stroke-miterlimit:4;stroke-opacity:1;stroke-dashoffset:0" />
      <path
         style="fill:none;stroke:#000000;stroke-width:0.03543307;stroke-linecap:butt;stroke-linejoin:miter;stroke-miterlimit:4;stroke-opacity:1;stroke-dashoffset:0"
         d="m 255.05561,389.70122 c 0,1.95692 -1.58639,3.54331 -3.5433,3.54331 -1.95692,0 -3.54331,-1.58639 -3.54331,-3.54331 0,-1.95691 1.58639,-3.5433 3.54331,-3.5433 1.95691,0 3.5433,1.58639 3.5433,3.5433 z"
         id="path3457"
         inkscape:connector-curvature="0" />
      <path
         style="fill:none;stroke:#000000;stroke-width:0.03543307;stroke-linecap:butt;stroke-linejoin:miter;stroke-miterlimit:4;stroke-opacity:1;stroke-dashoffset:0"
         d="m 216.07923,389.70123 c 0,1.95691 -1.58639,3.5433 -3.54331,3.5433 -1.95691,0 -3.5433,-1.58639 -3.5433,-3.5433 0,-1.95692 1.58639,-3.54331 3.5433,-3.54331 1.95692,0 3.54331,1.58639 3.54331,3.54331 z"
         id="path3459"
         inkscape:connector-curvature="0" />
    </g>
    <use
       style="display:inline"
       x="0"
       y="0"
       xlink:href="#g3461"
       id="use3468"
       transform="matrix(1,0,0,-1,-124.14074,907.14407)"
       width="1417.3228"
       height="1062.9921" />
    <use
       style="display:inline"
       height="1062.9921"
       width="1417.3228"
       transform="matrix(1,0,0,-1,123.89075,907.14407)"
       id="use3470"
       xlink:href="#g3461"
       y="0"
       x="0" />
    <use
       style="display:inline"
       x="0"
       y="0"
       xlink:href="#g3461"
       id="use3472"
       transform="translate(248.0315,4.1068527e-6)"
       width="1417.3228"
       height="1062.9921" />
    <use
       style="display:inline"
       x="0"
       y="0"
       xlink:href="#g3461"
       id="use3474"
       transform="matrix(1,0,0,-1,123.89076,1119.7425)"
       width="1417.3228"
       height="1062.9921" />
    <use
       style="display:inline"
       height="1062.9921"
       width="1417.3228"
       transform="translate(248.15651,212.59846)"
       id="use3476"
       xlink:href="#g3461"
       y="0"
       x="0" />
    <use
       style="display:inline"
       height="1062.9921"
       width="1417.3228"
       transform="matrix(1,0,0,-1,-124.14074,1119.7425)"
       id="use3478"
       xlink:href="#g3461"
       y="0"
       x="0" />
    <use
       style="display:inline"
       x="0"
       y="0"
       xlink:href="#g3461"
       id="use3480"
       transform="translate(0.12501,212.59846)"
       width="1417.3228"
       height="1062.9921" />
  </g>
  <g
     inkscape:groupmode="layer"
     id="layer2"
     inkscape:label="Aussenverbinder"
     style="display:inline">
    <g
       id="g3742">
      <path
         inkscape:connector-curvature="0"
         id="path3801"
         d="m 74.346949,141.66972 c 0,1.95692 -1.586392,3.54331 -3.543307,3.54331 -1.956914,0 -3.543307,-1.58639 -3.543307,-3.54331 0,-1.95691 1.586393,-3.5433 3.543307,-3.5433 1.956915,0 3.543307,1.58639 3.543307,3.5433 z"
         style="fill:none;stroke:#000000;stroke-width:0.03543307;stroke-linecap:butt;stroke-linejoin:miter;stroke-miterlimit:4;stroke-opacity:1;stroke-dashoffset:0" />
      <path
         inkscape:connector-curvature="0"
         id="path3799"
         d="m 35.370571,141.66973 c 0,1.95691 -1.586392,3.5433 -3.543307,3.5433 -1.956914,0 -3.543307,-1.58639 -3.543307,-3.5433 0,-1.95692 1.586393,-3.54331 3.543307,-3.54331 1.956915,0 3.543307,1.58639 3.543307,3.54331 z"
         style="fill:none;stroke:#000000;stroke-width:0.03543307;stroke-linecap:butt;stroke-linejoin:miter;stroke-miterlimit:4;stroke-opacity:1;stroke-dashoffset:0" />
      <path
         id="path3772"
         d="m 46.120571,17.778975 -10.625,10.59375 0,39.035679 35.4375,0 0,7.0625 -35.4375,0 -0.0625,31.828246 -3.543307,3.54331 -28.346457,0 L 0,113.38577 l 0,63.77952 159.44882,0 0,-63.77952 -3.5433,-3.54331 -28.34646,0 -3.54331,-3.54331 0.0736,-31.828246 -35.437499,0 0,-7.0625 35.437499,0 0,-39.004429 -10.65625,-10.625 z"
         style="fill:none;stroke:#000000;stroke-width:0.03543307;stroke-linecap:butt;stroke-linejoin:miter;stroke-miterlimit:4;stroke-opacity:1;stroke-dashoffset:0"
         inkscape:connector-curvature="0"
         sodipodi:nodetypes="ccccccccccccccccccccccc" />
      <path
         style="fill:none;stroke:#000000;stroke-width:0.03543307;stroke-linecap:butt;stroke-linejoin:miter;stroke-miterlimit:4;stroke-opacity:1;stroke-dashoffset:0"
         d="m 131.03986,141.66972 c 0,1.95692 -1.58639,3.54331 -3.5433,3.54331 -1.95692,0 -3.54331,-1.58639 -3.54331,-3.54331 0,-1.95691 1.58639,-3.5433 3.54331,-3.5433 1.95691,0 3.5433,1.58639 3.5433,3.5433 z"
         id="path3307"
         inkscape:connector-curvature="0" />
      <path
         style="fill:none;stroke:#000000;stroke-width:0.03543307;stroke-linecap:butt;stroke-linejoin:miter;stroke-miterlimit:4;stroke-opacity:1;stroke-dashoffset:0"
         d="m 92.063484,141.66973 c 0,1.95691 -1.586392,3.5433 -3.543307,3.5433 -1.956914,0 -3.543307,-1.58639 -3.543307,-3.5433 0,-1.95692 1.586393,-3.54331 3.543307,-3.54331 1.956915,0 3.543307,1.58639 3.543307,3.54331 z"
         id="path3309"
         inkscape:connector-curvature="0" />
    </g>
    <use
       x="0"
       y="0"
       xlink:href="#g3742"
       id="use3749"
       transform="matrix(1,0,0,-1,123.95325,194.94426)"
       width="1417.3228"
       height="1062.9921" />
    <use
       height="1062.9921"
       width="1417.3228"
       transform="translate(247.96899,-1.2149349e-7)"
       id="use3751"
       xlink:href="#g3742"
       y="0"
       x="0" />
    <use
       x="0"
       y="0"
       xlink:href="#g3742"
       id="use3753"
       transform="matrix(1,0,0,-1,371.98474,194.94426)"
       width="1417.3228"
       height="1062.9921" />
    <use
       height="1062.9921"
       width="1417.3228"
       transform="translate(0.0625,159.44881)"
       id="use3755"
       xlink:href="#g3742"
       y="0"
       x="0" />
    <use
       x="0"
       y="0"
       xlink:href="#g3742"
       id="use3757"
       transform="matrix(1,0,0,-1,123.95325,354.39309)"
       width="1417.3228"
       height="1062.9921" />
    <use
       height="1062.9921"
       width="1417.3228"
       transform="translate(247.96899,159.44881)"
       id="use3759"
       xlink:href="#g3742"
       y="0"
       x="0" />
    <use
       x="0"
       y="0"
       xlink:href="#g3742"
       id="use3761"
       transform="matrix(1,0,0,-1,371.98474,354.39309)"
       width="1417.3228"
       height="1062.9921" />
  </g>
</svg>
